<svg width="706" height="469" viewBox="0 0 706 469" fill="none" xmlns="http://www.w3.org/2000/svg">
    <path d="M224.891 468.301H36.2994C12.4024 468.301 -2.27672 442.139 10.1767 421.743L203.806 104.626C209.364 95.5224 219.262 89.9692 229.928 89.9692H674.47C698.103 89.9692 712.82 115.614 700.897 136.019L622.342 270.452C616.854 279.844 606.794 285.617 595.916 285.617H369.16C358.409 285.617 348.446 291.258 342.915 300.478L251.137 453.441C245.605 462.66 235.642 468.301 224.891 468.301Z"
          fill="#5669FF"/>
    <path d="M159.725 279.136H25.3893C6.27169 279.136 -5.47164 258.206 4.49108 241.89L144.728 12.216C149.175 4.93295 157.093 0.490356 165.626 0.490356H488.559C507.466 0.490356 519.239 21.0063 509.701 37.3299L454.115 132.455C449.725 139.969 441.677 144.587 432.974 144.587H268.182C259.581 144.587 251.61 149.1 247.185 156.475L180.722 267.248C176.297 274.623 168.326 279.136 159.725 279.136Z"
          fill="#ACEF03"/>
    <path d="M97.2512 279.136H159.725C168.326 279.136 176.297 274.623 180.722 267.248L247.185 156.475C251.61 149.1 259.581 144.587 268.182 144.587H432.974C441.677 144.587 449.725 139.969 454.115 132.455L478.941 89.9692H229.928C219.262 89.9692 209.364 95.5224 203.806 104.626L97.2512 279.136Z"
          fill="#72D234"/>
</svg>
