<svg width="32" height="32" viewBox="0 0 32 32" fill="none" xmlns="http://www.w3.org/2000/svg">
<path fill-rule="evenodd" clip-rule="evenodd" d="M11.4358 9.57176L14.6055 6.43589C15.3907 5.65903 16.657 5.66582 17.4339 6.45104L19.9846 9.02929C20.7615 9.81451 22.0278 9.82129 22.813 9.04444L25.5821 6.30482C26.3674 5.52797 26.3741 4.26166 25.5973 3.47644L22.8577 0.707315C22.0808 -0.0779057 20.8145 -0.0846892 20.0293 0.692165L17.451 3.24295C16.6658 4.0198 15.3995 4.01302 14.6226 3.22779L14.1818 2.7822C12.2397 0.819143 9.07388 0.802187 7.11083 2.74432L1.59119 8.20514C-0.37186 10.1473 -0.388818 13.3131 1.55332 15.2761L4.3767 18.1299C6.2637 20.0372 9.31972 20.1152 11.3016 18.3066L12.1936 17.4926C13.0599 16.702 13.0632 15.3392 12.2007 14.5445L11.5128 13.9106C10.2544 12.751 10.2193 10.7753 11.4358 9.57176ZM29.9272 23.8218C31.8902 21.8797 31.9072 18.7139 29.965 16.7509L27.3682 14.1261C25.3922 12.1288 22.159 12.1512 20.2109 14.1757L19.7223 14.6835C18.9862 15.4485 18.976 16.6553 19.6991 17.4325L20.995 18.8255C21.7311 19.6167 21.7056 20.8495 20.9373 21.6095L16.913 25.591C16.1278 26.3678 14.8615 26.361 14.0846 25.5758L11.5532 23.0172C10.7764 22.2319 9.51008 22.2252 8.72486 23.002L5.95574 25.7416C5.17051 26.5185 5.16373 27.7848 5.94058 28.57L8.6802 31.3391C9.45705 32.1244 10.7234 32.1311 11.5086 31.3543L14.0867 28.8036C14.8719 28.0268 16.1382 28.0336 16.9151 28.8188L17.3366 29.2448C19.2787 31.2078 22.4445 31.2248 24.4075 29.2827L29.9272 23.8218Z" fill="#ACEF03"/>
</svg>
